<mxfile host="app.diagrams.net" agent="Mozilla/5.0 (Macintosh; Intel Mac OS X 10_15_7) AppleWebKit/537.36 (KHTML, like Gecko) Chrome/136.0.0.0 Safari/537.36" version="26.2.14">
  <diagram name="第 1 页" id="oHD-tsFR7v9sybY2QBcn">
    <mxGraphModel dx="1454" dy="1126" grid="1" gridSize="10" guides="1" tooltips="1" connect="1" arrows="1" fold="1" page="1" pageScale="1" pageWidth="827" pageHeight="1169" math="0" shadow="0">
      <root>
        <mxCell id="0" />
        <mxCell id="1" parent="0" />
        <mxCell id="fYj6RV3s_RDbV_FSJ3RX-14" value="" style="rounded=0;whiteSpace=wrap;html=1;sketch=1;hachureGap=4;jiggle=2;curveFitting=1;fontFamily=Architects Daughter;fontSource=https%3A%2F%2Ffonts.googleapis.com%2Fcss%3Ffamily%3DArchitects%2BDaughter;fillColor=none;" vertex="1" parent="1">
          <mxGeometry x="560" y="390" width="460" height="60" as="geometry" />
        </mxCell>
        <mxCell id="fYj6RV3s_RDbV_FSJ3RX-4" style="edgeStyle=orthogonalEdgeStyle;rounded=0;sketch=1;hachureGap=4;jiggle=2;curveFitting=1;orthogonalLoop=1;jettySize=auto;html=1;entryX=0;entryY=0.5;entryDx=0;entryDy=0;fontFamily=Architects Daughter;fontSource=https%3A%2F%2Ffonts.googleapis.com%2Fcss%3Ffamily%3DArchitects%2BDaughter;" edge="1" parent="1" source="fYj6RV3s_RDbV_FSJ3RX-1" target="fYj6RV3s_RDbV_FSJ3RX-3">
          <mxGeometry relative="1" as="geometry" />
        </mxCell>
        <mxCell id="fYj6RV3s_RDbV_FSJ3RX-5" value="yyzone-&lt;font style=&quot;color: rgb(255, 0, 0);&quot;&gt;zljteest&lt;/font&gt;.&lt;font style=&quot;color: rgb(51, 51, 255);&quot;&gt;test&lt;/font&gt;.zhuanspirit.com" style="edgeLabel;html=1;align=center;verticalAlign=middle;resizable=0;points=[];sketch=1;hachureGap=4;jiggle=2;curveFitting=1;fontFamily=Architects Daughter;fontSource=https%3A%2F%2Ffonts.googleapis.com%2Fcss%3Ffamily%3DArchitects%2BDaughter;fontStyle=1;fontSize=12;" vertex="1" connectable="0" parent="fYj6RV3s_RDbV_FSJ3RX-4">
          <mxGeometry x="-0.3" y="3" relative="1" as="geometry">
            <mxPoint x="36" y="-7" as="offset" />
          </mxGeometry>
        </mxCell>
        <mxCell id="fYj6RV3s_RDbV_FSJ3RX-1" value="" style="shape=umlActor;verticalLabelPosition=bottom;verticalAlign=top;html=1;outlineConnect=0;sketch=1;hachureGap=4;jiggle=2;curveFitting=1;fontFamily=Architects Daughter;fontSource=https%3A%2F%2Ffonts.googleapis.com%2Fcss%3Ffamily%3DArchitects%2BDaughter;" vertex="1" parent="1">
          <mxGeometry y="350" width="40" height="60" as="geometry" />
        </mxCell>
        <mxCell id="fYj6RV3s_RDbV_FSJ3RX-3" value="&lt;b&gt;运营系统&lt;/b&gt;" style="rounded=0;whiteSpace=wrap;html=1;sketch=1;hachureGap=4;jiggle=2;curveFitting=1;fontFamily=Architects Daughter;fontSource=https%3A%2F%2Ffonts.googleapis.com%2Fcss%3Ffamily%3DArchitects%2BDaughter;fillColor=none;strokeWidth=2;" vertex="1" parent="1">
          <mxGeometry x="280" y="320" width="80" height="120" as="geometry" />
        </mxCell>
        <mxCell id="fYj6RV3s_RDbV_FSJ3RX-11" style="edgeStyle=orthogonalEdgeStyle;rounded=0;sketch=1;hachureGap=4;jiggle=2;curveFitting=1;orthogonalLoop=1;jettySize=auto;html=1;exitX=1;exitY=0.5;exitDx=0;exitDy=0;entryX=0;entryY=0.5;entryDx=0;entryDy=0;fontFamily=Architects Daughter;fontSource=https%3A%2F%2Ffonts.googleapis.com%2Fcss%3Ffamily%3DArchitects%2BDaughter;strokeWidth=2;" edge="1" parent="1" source="fYj6RV3s_RDbV_FSJ3RX-7" target="fYj6RV3s_RDbV_FSJ3RX-8">
          <mxGeometry relative="1" as="geometry" />
        </mxCell>
        <mxCell id="fYj6RV3s_RDbV_FSJ3RX-7" value="Entry" style="rounded=0;whiteSpace=wrap;html=1;sketch=1;hachureGap=4;jiggle=2;curveFitting=1;fontFamily=Architects Daughter;fontSource=https%3A%2F%2Ffonts.googleapis.com%2Fcss%3Ffamily%3DArchitects%2BDaughter;fillColor=none;strokeWidth=2;fontStyle=1" vertex="1" parent="1">
          <mxGeometry x="570" y="400" width="80" height="40" as="geometry" />
        </mxCell>
        <mxCell id="fYj6RV3s_RDbV_FSJ3RX-12" style="edgeStyle=orthogonalEdgeStyle;rounded=0;sketch=1;hachureGap=4;jiggle=2;curveFitting=1;orthogonalLoop=1;jettySize=auto;html=1;exitX=1;exitY=0.5;exitDx=0;exitDy=0;entryX=0;entryY=0.5;entryDx=0;entryDy=0;fontFamily=Architects Daughter;fontSource=https%3A%2F%2Ffonts.googleapis.com%2Fcss%3Ffamily%3DArchitects%2BDaughter;strokeWidth=2;" edge="1" parent="1" source="fYj6RV3s_RDbV_FSJ3RX-8" target="fYj6RV3s_RDbV_FSJ3RX-9">
          <mxGeometry relative="1" as="geometry" />
        </mxCell>
        <mxCell id="fYj6RV3s_RDbV_FSJ3RX-8" value="A" style="rounded=0;whiteSpace=wrap;html=1;sketch=1;hachureGap=4;jiggle=2;curveFitting=1;fontFamily=Architects Daughter;fontSource=https%3A%2F%2Ffonts.googleapis.com%2Fcss%3Ffamily%3DArchitects%2BDaughter;fillColor=none;strokeWidth=2;fontStyle=1" vertex="1" parent="1">
          <mxGeometry x="690" y="400" width="80" height="40" as="geometry" />
        </mxCell>
        <mxCell id="fYj6RV3s_RDbV_FSJ3RX-13" style="edgeStyle=orthogonalEdgeStyle;rounded=0;sketch=1;hachureGap=4;jiggle=2;curveFitting=1;orthogonalLoop=1;jettySize=auto;html=1;exitX=1;exitY=0.5;exitDx=0;exitDy=0;entryX=0;entryY=0.5;entryDx=0;entryDy=0;fontFamily=Architects Daughter;fontSource=https%3A%2F%2Ffonts.googleapis.com%2Fcss%3Ffamily%3DArchitects%2BDaughter;strokeWidth=2;" edge="1" parent="1" source="fYj6RV3s_RDbV_FSJ3RX-9" target="fYj6RV3s_RDbV_FSJ3RX-10">
          <mxGeometry relative="1" as="geometry" />
        </mxCell>
        <mxCell id="fYj6RV3s_RDbV_FSJ3RX-9" value="B" style="rounded=0;whiteSpace=wrap;html=1;sketch=1;hachureGap=4;jiggle=2;curveFitting=1;fontFamily=Architects Daughter;fontSource=https%3A%2F%2Ffonts.googleapis.com%2Fcss%3Ffamily%3DArchitects%2BDaughter;fillColor=none;strokeWidth=2;fontStyle=1" vertex="1" parent="1">
          <mxGeometry x="810" y="400" width="80" height="40" as="geometry" />
        </mxCell>
        <mxCell id="fYj6RV3s_RDbV_FSJ3RX-10" value="C" style="rounded=0;whiteSpace=wrap;html=1;sketch=1;hachureGap=4;jiggle=2;curveFitting=1;fontFamily=Architects Daughter;fontSource=https%3A%2F%2Ffonts.googleapis.com%2Fcss%3Ffamily%3DArchitects%2BDaughter;fillColor=none;strokeWidth=2;fontStyle=1" vertex="1" parent="1">
          <mxGeometry x="930" y="400" width="80" height="40" as="geometry" />
        </mxCell>
        <mxCell id="fYj6RV3s_RDbV_FSJ3RX-15" value="&lt;b&gt;测试环境&lt;/b&gt;" style="text;html=1;align=center;verticalAlign=middle;resizable=0;points=[];autosize=1;strokeColor=none;fillColor=none;fontFamily=Architects Daughter;fontSource=https%3A%2F%2Ffonts.googleapis.com%2Fcss%3Ffamily%3DArchitects%2BDaughter;" vertex="1" parent="1">
          <mxGeometry x="1020" y="405" width="70" height="30" as="geometry" />
        </mxCell>
        <mxCell id="fYj6RV3s_RDbV_FSJ3RX-17" value="" style="rounded=0;whiteSpace=wrap;html=1;sketch=1;hachureGap=4;jiggle=2;curveFitting=1;fontFamily=Architects Daughter;fontSource=https%3A%2F%2Ffonts.googleapis.com%2Fcss%3Ffamily%3DArchitects%2BDaughter;fillColor=none;" vertex="1" parent="1">
          <mxGeometry x="560" y="310" width="460" height="60" as="geometry" />
        </mxCell>
        <mxCell id="fYj6RV3s_RDbV_FSJ3RX-18" style="edgeStyle=orthogonalEdgeStyle;rounded=0;sketch=1;hachureGap=4;jiggle=2;curveFitting=1;orthogonalLoop=1;jettySize=auto;html=1;exitX=1;exitY=0.5;exitDx=0;exitDy=0;entryX=0;entryY=0.5;entryDx=0;entryDy=0;fontFamily=Architects Daughter;fontSource=https%3A%2F%2Ffonts.googleapis.com%2Fcss%3Ffamily%3DArchitects%2BDaughter;strokeWidth=2;" edge="1" parent="1" source="fYj6RV3s_RDbV_FSJ3RX-19" target="fYj6RV3s_RDbV_FSJ3RX-21">
          <mxGeometry relative="1" as="geometry" />
        </mxCell>
        <mxCell id="fYj6RV3s_RDbV_FSJ3RX-19" value="Entry" style="rounded=0;whiteSpace=wrap;html=1;sketch=1;hachureGap=4;jiggle=2;curveFitting=1;fontFamily=Architects Daughter;fontSource=https%3A%2F%2Ffonts.googleapis.com%2Fcss%3Ffamily%3DArchitects%2BDaughter;fillColor=none;strokeWidth=2;fontStyle=1" vertex="1" parent="1">
          <mxGeometry x="570" y="320" width="80" height="40" as="geometry" />
        </mxCell>
        <mxCell id="fYj6RV3s_RDbV_FSJ3RX-20" style="edgeStyle=orthogonalEdgeStyle;rounded=0;sketch=1;hachureGap=4;jiggle=2;curveFitting=1;orthogonalLoop=1;jettySize=auto;html=1;exitX=1;exitY=0.5;exitDx=0;exitDy=0;entryX=0;entryY=0.5;entryDx=0;entryDy=0;fontFamily=Architects Daughter;fontSource=https%3A%2F%2Ffonts.googleapis.com%2Fcss%3Ffamily%3DArchitects%2BDaughter;strokeWidth=2;" edge="1" parent="1" source="fYj6RV3s_RDbV_FSJ3RX-21" target="fYj6RV3s_RDbV_FSJ3RX-23">
          <mxGeometry relative="1" as="geometry" />
        </mxCell>
        <mxCell id="fYj6RV3s_RDbV_FSJ3RX-21" value="A" style="rounded=0;whiteSpace=wrap;html=1;sketch=1;hachureGap=4;jiggle=2;curveFitting=1;fontFamily=Architects Daughter;fontSource=https%3A%2F%2Ffonts.googleapis.com%2Fcss%3Ffamily%3DArchitects%2BDaughter;fillColor=none;strokeWidth=2;fontStyle=1" vertex="1" parent="1">
          <mxGeometry x="690" y="320" width="80" height="40" as="geometry" />
        </mxCell>
        <mxCell id="fYj6RV3s_RDbV_FSJ3RX-22" style="edgeStyle=orthogonalEdgeStyle;rounded=0;sketch=1;hachureGap=4;jiggle=2;curveFitting=1;orthogonalLoop=1;jettySize=auto;html=1;exitX=1;exitY=0.5;exitDx=0;exitDy=0;entryX=0;entryY=0.5;entryDx=0;entryDy=0;fontFamily=Architects Daughter;fontSource=https%3A%2F%2Ffonts.googleapis.com%2Fcss%3Ffamily%3DArchitects%2BDaughter;strokeWidth=2;" edge="1" parent="1" source="fYj6RV3s_RDbV_FSJ3RX-23" target="fYj6RV3s_RDbV_FSJ3RX-24">
          <mxGeometry relative="1" as="geometry" />
        </mxCell>
        <mxCell id="fYj6RV3s_RDbV_FSJ3RX-23" value="B" style="rounded=0;whiteSpace=wrap;html=1;sketch=1;hachureGap=4;jiggle=2;curveFitting=1;fontFamily=Architects Daughter;fontSource=https%3A%2F%2Ffonts.googleapis.com%2Fcss%3Ffamily%3DArchitects%2BDaughter;fillColor=none;strokeWidth=2;fontStyle=1" vertex="1" parent="1">
          <mxGeometry x="810" y="320" width="80" height="40" as="geometry" />
        </mxCell>
        <mxCell id="fYj6RV3s_RDbV_FSJ3RX-24" value="C" style="rounded=0;whiteSpace=wrap;html=1;sketch=1;hachureGap=4;jiggle=2;curveFitting=1;fontFamily=Architects Daughter;fontSource=https%3A%2F%2Ffonts.googleapis.com%2Fcss%3Ffamily%3DArchitects%2BDaughter;fillColor=none;strokeWidth=2;fontStyle=1" vertex="1" parent="1">
          <mxGeometry x="930" y="320" width="80" height="40" as="geometry" />
        </mxCell>
        <mxCell id="fYj6RV3s_RDbV_FSJ3RX-25" value="&lt;b&gt;线上环境&lt;/b&gt;" style="text;html=1;align=center;verticalAlign=middle;resizable=0;points=[];autosize=1;strokeColor=none;fillColor=none;fontFamily=Architects Daughter;fontSource=https%3A%2F%2Ffonts.googleapis.com%2Fcss%3Ffamily%3DArchitects%2BDaughter;" vertex="1" parent="1">
          <mxGeometry x="1020" y="325" width="70" height="30" as="geometry" />
        </mxCell>
        <mxCell id="fYj6RV3s_RDbV_FSJ3RX-26" value="" style="endArrow=classic;html=1;rounded=0;sketch=1;hachureGap=4;jiggle=2;curveFitting=1;fontFamily=Architects Daughter;fontSource=https%3A%2F%2Ffonts.googleapis.com%2Fcss%3Ffamily%3DArchitects%2BDaughter;exitX=1;exitY=0.5;exitDx=0;exitDy=0;entryX=0;entryY=0.5;entryDx=0;entryDy=0;strokeWidth=2;" edge="1" parent="1" source="fYj6RV3s_RDbV_FSJ3RX-3" target="fYj6RV3s_RDbV_FSJ3RX-17">
          <mxGeometry width="50" height="50" relative="1" as="geometry">
            <mxPoint x="390" y="550" as="sourcePoint" />
            <mxPoint x="440" y="500" as="targetPoint" />
          </mxGeometry>
        </mxCell>
        <mxCell id="fYj6RV3s_RDbV_FSJ3RX-27" value="&lt;b&gt;&lt;font style=&quot;font-size: 12px;&quot;&gt;ptyy.zhuanspirit.com&lt;/font&gt;&lt;/b&gt;" style="edgeLabel;html=1;align=center;verticalAlign=middle;resizable=0;points=[];sketch=1;hachureGap=4;jiggle=2;curveFitting=1;fontFamily=Architects Daughter;fontSource=https%3A%2F%2Ffonts.googleapis.com%2Fcss%3Ffamily%3DArchitects%2BDaughter;rotation=-15;" vertex="1" connectable="0" parent="fYj6RV3s_RDbV_FSJ3RX-26">
          <mxGeometry x="-0.1853" y="1" relative="1" as="geometry">
            <mxPoint x="9" y="-23" as="offset" />
          </mxGeometry>
        </mxCell>
        <mxCell id="fYj6RV3s_RDbV_FSJ3RX-28" value="" style="rounded=0;whiteSpace=wrap;html=1;sketch=1;hachureGap=4;jiggle=2;curveFitting=1;fontFamily=Architects Daughter;fontSource=https%3A%2F%2Ffonts.googleapis.com%2Fcss%3Ffamily%3DArchitects%2BDaughter;fillColor=none;" vertex="1" parent="1">
          <mxGeometry x="560" y="630" width="460" height="60" as="geometry" />
        </mxCell>
        <mxCell id="fYj6RV3s_RDbV_FSJ3RX-29" style="edgeStyle=orthogonalEdgeStyle;rounded=0;sketch=1;hachureGap=4;jiggle=2;curveFitting=1;orthogonalLoop=1;jettySize=auto;html=1;entryX=0;entryY=0.5;entryDx=0;entryDy=0;fontFamily=Architects Daughter;fontSource=https%3A%2F%2Ffonts.googleapis.com%2Fcss%3Ffamily%3DArchitects%2BDaughter;" edge="1" parent="1" source="fYj6RV3s_RDbV_FSJ3RX-31" target="fYj6RV3s_RDbV_FSJ3RX-32">
          <mxGeometry relative="1" as="geometry" />
        </mxCell>
        <mxCell id="fYj6RV3s_RDbV_FSJ3RX-30" value="yyzone-&lt;font style=&quot;color: rgb(255, 0, 0);&quot;&gt;zljteest&lt;/font&gt;.&lt;font style=&quot;color: rgb(51, 51, 255);&quot;&gt;test&lt;/font&gt;.zhuanspirit.com" style="edgeLabel;html=1;align=center;verticalAlign=middle;resizable=0;points=[];sketch=1;hachureGap=4;jiggle=2;curveFitting=1;fontFamily=Architects Daughter;fontSource=https%3A%2F%2Ffonts.googleapis.com%2Fcss%3Ffamily%3DArchitects%2BDaughter;fontStyle=1;fontSize=12;" vertex="1" connectable="0" parent="fYj6RV3s_RDbV_FSJ3RX-29">
          <mxGeometry x="-0.3" y="3" relative="1" as="geometry">
            <mxPoint x="36" y="-7" as="offset" />
          </mxGeometry>
        </mxCell>
        <mxCell id="fYj6RV3s_RDbV_FSJ3RX-31" value="" style="shape=umlActor;verticalLabelPosition=bottom;verticalAlign=top;html=1;outlineConnect=0;sketch=1;hachureGap=4;jiggle=2;curveFitting=1;fontFamily=Architects Daughter;fontSource=https%3A%2F%2Ffonts.googleapis.com%2Fcss%3Ffamily%3DArchitects%2BDaughter;" vertex="1" parent="1">
          <mxGeometry y="590" width="40" height="60" as="geometry" />
        </mxCell>
        <mxCell id="fYj6RV3s_RDbV_FSJ3RX-32" value="&lt;b&gt;运营系统&lt;/b&gt;" style="rounded=0;whiteSpace=wrap;html=1;sketch=1;hachureGap=4;jiggle=2;curveFitting=1;fontFamily=Architects Daughter;fontSource=https%3A%2F%2Ffonts.googleapis.com%2Fcss%3Ffamily%3DArchitects%2BDaughter;fillColor=none;strokeWidth=2;" vertex="1" parent="1">
          <mxGeometry x="280" y="560" width="80" height="120" as="geometry" />
        </mxCell>
        <mxCell id="fYj6RV3s_RDbV_FSJ3RX-33" style="edgeStyle=orthogonalEdgeStyle;rounded=0;sketch=1;hachureGap=4;jiggle=2;curveFitting=1;orthogonalLoop=1;jettySize=auto;html=1;exitX=1;exitY=0.5;exitDx=0;exitDy=0;entryX=0;entryY=0.5;entryDx=0;entryDy=0;fontFamily=Architects Daughter;fontSource=https%3A%2F%2Ffonts.googleapis.com%2Fcss%3Ffamily%3DArchitects%2BDaughter;strokeWidth=2;" edge="1" parent="1" source="fYj6RV3s_RDbV_FSJ3RX-34" target="fYj6RV3s_RDbV_FSJ3RX-36">
          <mxGeometry relative="1" as="geometry" />
        </mxCell>
        <mxCell id="fYj6RV3s_RDbV_FSJ3RX-34" value="Entry" style="rounded=0;whiteSpace=wrap;html=1;sketch=1;hachureGap=4;jiggle=2;curveFitting=1;fontFamily=Architects Daughter;fontSource=https%3A%2F%2Ffonts.googleapis.com%2Fcss%3Ffamily%3DArchitects%2BDaughter;fillColor=none;strokeWidth=2;fontStyle=1" vertex="1" parent="1">
          <mxGeometry x="570" y="640" width="80" height="40" as="geometry" />
        </mxCell>
        <mxCell id="fYj6RV3s_RDbV_FSJ3RX-35" style="edgeStyle=orthogonalEdgeStyle;rounded=0;sketch=1;hachureGap=4;jiggle=2;curveFitting=1;orthogonalLoop=1;jettySize=auto;html=1;exitX=1;exitY=0.5;exitDx=0;exitDy=0;entryX=0;entryY=0.5;entryDx=0;entryDy=0;fontFamily=Architects Daughter;fontSource=https%3A%2F%2Ffonts.googleapis.com%2Fcss%3Ffamily%3DArchitects%2BDaughter;strokeWidth=2;" edge="1" parent="1" source="fYj6RV3s_RDbV_FSJ3RX-36" target="fYj6RV3s_RDbV_FSJ3RX-38">
          <mxGeometry relative="1" as="geometry" />
        </mxCell>
        <mxCell id="fYj6RV3s_RDbV_FSJ3RX-36" value="A" style="rounded=0;whiteSpace=wrap;html=1;sketch=1;hachureGap=4;jiggle=2;curveFitting=1;fontFamily=Architects Daughter;fontSource=https%3A%2F%2Ffonts.googleapis.com%2Fcss%3Ffamily%3DArchitects%2BDaughter;fillColor=none;strokeWidth=2;fontStyle=1" vertex="1" parent="1">
          <mxGeometry x="690" y="640" width="80" height="40" as="geometry" />
        </mxCell>
        <mxCell id="fYj6RV3s_RDbV_FSJ3RX-37" style="edgeStyle=orthogonalEdgeStyle;rounded=0;sketch=1;hachureGap=4;jiggle=2;curveFitting=1;orthogonalLoop=1;jettySize=auto;html=1;exitX=1;exitY=0.5;exitDx=0;exitDy=0;entryX=0;entryY=0.5;entryDx=0;entryDy=0;fontFamily=Architects Daughter;fontSource=https%3A%2F%2Ffonts.googleapis.com%2Fcss%3Ffamily%3DArchitects%2BDaughter;strokeWidth=2;" edge="1" parent="1" source="fYj6RV3s_RDbV_FSJ3RX-38" target="fYj6RV3s_RDbV_FSJ3RX-39">
          <mxGeometry relative="1" as="geometry" />
        </mxCell>
        <mxCell id="fYj6RV3s_RDbV_FSJ3RX-38" value="B" style="rounded=0;whiteSpace=wrap;html=1;sketch=1;hachureGap=4;jiggle=2;curveFitting=1;fontFamily=Architects Daughter;fontSource=https%3A%2F%2Ffonts.googleapis.com%2Fcss%3Ffamily%3DArchitects%2BDaughter;fillColor=none;strokeWidth=2;fontStyle=1" vertex="1" parent="1">
          <mxGeometry x="810" y="640" width="80" height="40" as="geometry" />
        </mxCell>
        <mxCell id="fYj6RV3s_RDbV_FSJ3RX-39" value="C" style="rounded=0;whiteSpace=wrap;html=1;sketch=1;hachureGap=4;jiggle=2;curveFitting=1;fontFamily=Architects Daughter;fontSource=https%3A%2F%2Ffonts.googleapis.com%2Fcss%3Ffamily%3DArchitects%2BDaughter;fillColor=none;strokeWidth=2;fontStyle=1" vertex="1" parent="1">
          <mxGeometry x="930" y="640" width="80" height="40" as="geometry" />
        </mxCell>
        <mxCell id="fYj6RV3s_RDbV_FSJ3RX-40" value="&lt;b&gt;测试环境&lt;/b&gt;" style="text;html=1;align=center;verticalAlign=middle;resizable=0;points=[];autosize=1;strokeColor=none;fillColor=none;fontFamily=Architects Daughter;fontSource=https%3A%2F%2Ffonts.googleapis.com%2Fcss%3Ffamily%3DArchitects%2BDaughter;" vertex="1" parent="1">
          <mxGeometry x="1020" y="645" width="70" height="30" as="geometry" />
        </mxCell>
        <mxCell id="fYj6RV3s_RDbV_FSJ3RX-41" value="" style="rounded=0;whiteSpace=wrap;html=1;sketch=1;hachureGap=4;jiggle=2;curveFitting=1;fontFamily=Architects Daughter;fontSource=https%3A%2F%2Ffonts.googleapis.com%2Fcss%3Ffamily%3DArchitects%2BDaughter;fillColor=none;" vertex="1" parent="1">
          <mxGeometry x="560" y="550" width="460" height="60" as="geometry" />
        </mxCell>
        <mxCell id="fYj6RV3s_RDbV_FSJ3RX-42" style="edgeStyle=orthogonalEdgeStyle;rounded=0;sketch=1;hachureGap=4;jiggle=2;curveFitting=1;orthogonalLoop=1;jettySize=auto;html=1;exitX=1;exitY=0.5;exitDx=0;exitDy=0;entryX=0;entryY=0.5;entryDx=0;entryDy=0;fontFamily=Architects Daughter;fontSource=https%3A%2F%2Ffonts.googleapis.com%2Fcss%3Ffamily%3DArchitects%2BDaughter;strokeWidth=2;" edge="1" parent="1" source="fYj6RV3s_RDbV_FSJ3RX-43" target="fYj6RV3s_RDbV_FSJ3RX-45">
          <mxGeometry relative="1" as="geometry" />
        </mxCell>
        <mxCell id="fYj6RV3s_RDbV_FSJ3RX-43" value="Entry" style="rounded=0;whiteSpace=wrap;html=1;sketch=1;hachureGap=4;jiggle=2;curveFitting=1;fontFamily=Architects Daughter;fontSource=https%3A%2F%2Ffonts.googleapis.com%2Fcss%3Ffamily%3DArchitects%2BDaughter;fillColor=none;strokeWidth=2;fontStyle=1" vertex="1" parent="1">
          <mxGeometry x="570" y="560" width="80" height="40" as="geometry" />
        </mxCell>
        <mxCell id="fYj6RV3s_RDbV_FSJ3RX-44" style="edgeStyle=orthogonalEdgeStyle;rounded=0;sketch=1;hachureGap=4;jiggle=2;curveFitting=1;orthogonalLoop=1;jettySize=auto;html=1;exitX=1;exitY=0.5;exitDx=0;exitDy=0;entryX=0;entryY=0.5;entryDx=0;entryDy=0;fontFamily=Architects Daughter;fontSource=https%3A%2F%2Ffonts.googleapis.com%2Fcss%3Ffamily%3DArchitects%2BDaughter;strokeWidth=2;" edge="1" parent="1" source="fYj6RV3s_RDbV_FSJ3RX-45" target="fYj6RV3s_RDbV_FSJ3RX-47">
          <mxGeometry relative="1" as="geometry" />
        </mxCell>
        <mxCell id="fYj6RV3s_RDbV_FSJ3RX-45" value="A" style="rounded=0;whiteSpace=wrap;html=1;sketch=1;hachureGap=4;jiggle=2;curveFitting=1;fontFamily=Architects Daughter;fontSource=https%3A%2F%2Ffonts.googleapis.com%2Fcss%3Ffamily%3DArchitects%2BDaughter;fillColor=none;strokeWidth=2;fontStyle=1" vertex="1" parent="1">
          <mxGeometry x="690" y="560" width="80" height="40" as="geometry" />
        </mxCell>
        <mxCell id="fYj6RV3s_RDbV_FSJ3RX-46" style="edgeStyle=orthogonalEdgeStyle;rounded=0;sketch=1;hachureGap=4;jiggle=2;curveFitting=1;orthogonalLoop=1;jettySize=auto;html=1;exitX=1;exitY=0.5;exitDx=0;exitDy=0;entryX=0;entryY=0.5;entryDx=0;entryDy=0;fontFamily=Architects Daughter;fontSource=https%3A%2F%2Ffonts.googleapis.com%2Fcss%3Ffamily%3DArchitects%2BDaughter;strokeWidth=2;" edge="1" parent="1" source="fYj6RV3s_RDbV_FSJ3RX-47" target="fYj6RV3s_RDbV_FSJ3RX-48">
          <mxGeometry relative="1" as="geometry" />
        </mxCell>
        <mxCell id="fYj6RV3s_RDbV_FSJ3RX-47" value="B" style="rounded=0;whiteSpace=wrap;html=1;sketch=1;hachureGap=4;jiggle=2;curveFitting=1;fontFamily=Architects Daughter;fontSource=https%3A%2F%2Ffonts.googleapis.com%2Fcss%3Ffamily%3DArchitects%2BDaughter;fillColor=none;strokeWidth=2;fontStyle=1" vertex="1" parent="1">
          <mxGeometry x="810" y="560" width="80" height="40" as="geometry" />
        </mxCell>
        <mxCell id="fYj6RV3s_RDbV_FSJ3RX-48" value="C" style="rounded=0;whiteSpace=wrap;html=1;sketch=1;hachureGap=4;jiggle=2;curveFitting=1;fontFamily=Architects Daughter;fontSource=https%3A%2F%2Ffonts.googleapis.com%2Fcss%3Ffamily%3DArchitects%2BDaughter;fillColor=none;strokeWidth=2;fontStyle=1" vertex="1" parent="1">
          <mxGeometry x="930" y="560" width="80" height="40" as="geometry" />
        </mxCell>
        <mxCell id="fYj6RV3s_RDbV_FSJ3RX-49" value="&lt;b&gt;线上环境&lt;/b&gt;" style="text;html=1;align=center;verticalAlign=middle;resizable=0;points=[];autosize=1;strokeColor=none;fillColor=none;fontFamily=Architects Daughter;fontSource=https%3A%2F%2Ffonts.googleapis.com%2Fcss%3Ffamily%3DArchitects%2BDaughter;" vertex="1" parent="1">
          <mxGeometry x="1020" y="565" width="70" height="30" as="geometry" />
        </mxCell>
        <mxCell id="fYj6RV3s_RDbV_FSJ3RX-50" value="" style="endArrow=classic;html=1;rounded=0;sketch=1;hachureGap=4;jiggle=2;curveFitting=1;fontFamily=Architects Daughter;fontSource=https%3A%2F%2Ffonts.googleapis.com%2Fcss%3Ffamily%3DArchitects%2BDaughter;exitX=1;exitY=0.5;exitDx=0;exitDy=0;entryX=0;entryY=0.5;entryDx=0;entryDy=0;strokeWidth=2;" edge="1" parent="1" source="fYj6RV3s_RDbV_FSJ3RX-32" target="fYj6RV3s_RDbV_FSJ3RX-28">
          <mxGeometry width="50" height="50" relative="1" as="geometry">
            <mxPoint x="390" y="790" as="sourcePoint" />
            <mxPoint x="440" y="740" as="targetPoint" />
          </mxGeometry>
        </mxCell>
        <mxCell id="fYj6RV3s_RDbV_FSJ3RX-51" value="&lt;b&gt;&lt;font style=&quot;font-size: 12px;&quot;&gt;ptyy-&lt;font style=&quot;color: rgb(255, 0, 0);&quot;&gt;zljtest&lt;/font&gt;.&lt;font style=&quot;color: rgb(51, 51, 255);&quot;&gt;test&lt;/font&gt;.zhuanspirit.com&lt;/font&gt;&lt;/b&gt;" style="edgeLabel;html=1;align=center;verticalAlign=middle;resizable=0;points=[];sketch=1;hachureGap=4;jiggle=2;curveFitting=1;fontFamily=Architects Daughter;fontSource=https%3A%2F%2Ffonts.googleapis.com%2Fcss%3Ffamily%3DArchitects%2BDaughter;rotation=10;" vertex="1" connectable="0" parent="fYj6RV3s_RDbV_FSJ3RX-50">
          <mxGeometry x="-0.1853" y="1" relative="1" as="geometry">
            <mxPoint x="19" y="-7" as="offset" />
          </mxGeometry>
        </mxCell>
        <mxCell id="fYj6RV3s_RDbV_FSJ3RX-52" value="" style="shape=flexArrow;endArrow=classic;html=1;rounded=0;sketch=1;hachureGap=4;jiggle=2;curveFitting=1;fontFamily=Architects Daughter;fontSource=https%3A%2F%2Ffonts.googleapis.com%2Fcss%3Ffamily%3DArchitects%2BDaughter;fillColor=#FF0000;strokeColor=#FF0000;" edge="1" parent="1">
          <mxGeometry width="50" height="50" relative="1" as="geometry">
            <mxPoint x="320" y="460" as="sourcePoint" />
            <mxPoint x="320" y="540" as="targetPoint" />
          </mxGeometry>
        </mxCell>
      </root>
    </mxGraphModel>
  </diagram>
</mxfile>
